<!DOCTYPE svg PUBLIC "-//W3C//DTD SVG 20010904//EN" "http://www.w3.org/TR/2001/REC-SVG-20010904/DTD/svg10.dtd">
<svg version="1.0" xmlns="http://www.w3.org/2000/svg" width="554px" height="544px" viewBox="0 0 5540 5440" preserveAspectRatio="xMidYMid meet">
<g id="layer101" fill="#020202" stroke="none">
 <path d="M0 2720 l0 -2720 2770 0 2770 0 0 2720 0 2720 -2770 0 -2770 0 0 -2720z"/>
 </g>
<g id="layer102" fill="#ffffff" stroke="none">
 <path d="M0 2720 l0 -2720 2770 0 2770 0 0 2720 0 2720 -2770 0 -2770 0 0 -2720z m1390 2015 l0 -85 -99 0 c-163 0 -264 -41 -364 -149 -87 -95 -97 -132 -108 -396 -13 -339 -15 -425 -6 -425 4 0 7 4 7 8 0 14 131 204 190 277 182 223 450 432 715 560 775 373 1707 315 2411 -151 453 -299 759 -734 864 -1229 31 -145 38 -430 16 -583 -91 -616 -510 -1154 -1129 -1452 -761 -366 -1698 -304 -2398 159 -378 250 -661 607 -799 1007 -63 182 -82 303 -87 549 -7 307 32 1474 52 1548 58 224 268 399 520 436 33 5 95 9 138 10 l77 1 0 -85z"/>
 <path d="M2615 4600 c-580 -54 -1095 -306 -1430 -700 -421 -496 -518 -1149 -256 -1734 239 -531 799 -953 1441 -1085 497 -103 1067 -26 1489 201 377 202 646 470 816 813 124 249 168 437 169 715 1 194 -17 308 -76 490 -189 585 -713 1052 -1381 1230 -225 60 -557 90 -772 70z m39 -375 c154 -40 290 -149 353 -281 33 -69 38 -90 41 -166 10 -244 -148 -431 -415 -492 -338 -76 -678 154 -684 464 -2 80 9 126 47 206 58 123 193 228 344 268 74 20 241 20 314 1z m1215 -390 c185 -44 348 -186 395 -345 63 -212 -46 -441 -260 -549 -223 -111 -511 -66 -685 108 -80 80 -117 149 -135 254 -25 145 19 273 135 387 108 106 237 158 396 159 50 0 119 -6 154 -14z m-2034 -510 c144 -30 274 -116 347 -229 144 -223 81 -485 -152 -635 -224 -145 -549 -112 -734 73 -147 147 -183 344 -97 521 37 75 134 173 212 215 122 65 280 85 424 55z m1072 -366 c160 -77 94 -299 -89 -299 -63 0 -106 19 -146 64 -37 42 -47 73 -39 122 18 110 160 168 274 113z m896 -264 c296 -52 491 -308 433 -568 -31 -138 -117 -250 -246 -316 -105 -55 -179 -74 -280 -74 -179 0 -311 52 -426 167 -42 43 -81 94 -98 128 -121 249 15 539 300 639 116 41 191 47 317 24z m-1162 -337 c191 -70 313 -204 349 -383 31 -152 -44 -334 -181 -437 -70 -52 -118 -75 -211 -98 -269 -69 -549 51 -664 284 -38 78 -39 83 -39 186 0 102 1 109 37 181 68 138 191 236 349 279 103 28 266 23 360 -12z"/>
 <path d="M2365 4070 c-89 -29 -166 -94 -205 -174 -30 -60 -32 -72 -28 -139 4 -56 12 -86 34 -126 70 -131 237 -208 391 -183 185 31 303 155 305 320 0 74 -13 115 -60 179 -89 121 -277 174 -437 123z"/>
 <path d="M3608 3671 c-100 -32 -171 -91 -220 -183 -35 -66 -32 -175 7 -251 52 -104 148 -168 281 -189 162 -25 321 51 391 187 38 74 38 179 0 257 -75 154 -283 235 -459 179z"/>
 <path d="M1588 3161 c-159 -52 -247 -161 -248 -304 0 -163 132 -295 322 -320 60 -8 91 -8 131 3 75 19 143 55 191 103 59 60 80 108 84 200 4 68 1 84 -22 132 -35 71 -119 147 -193 175 -81 30 -193 35 -265 11z"/>
 <path d="M3622 2539 c-80 -15 -160 -59 -211 -115 -117 -128 -109 -301 20 -424 75 -72 137 -94 269 -94 94 -1 111 2 162 26 72 33 137 93 168 155 32 63 36 197 6 255 -28 57 -89 121 -143 151 -74 39 -196 61 -271 46z"/>
 <path d="M2347 2219 c-90 -21 -191 -93 -234 -166 -22 -37 -28 -62 -31 -129 -4 -75 -2 -89 22 -138 111 -226 444 -274 622 -89 77 81 104 201 68 307 -20 59 -100 148 -159 176 -95 46 -199 60 -288 39z"/>
 </g>

</svg>